<svg fill="#FFFFFF" xmlns="http://www.w3.org/2000/svg"  viewBox="0 0 50 50" width="50px" height="50px"><path d="M 12.78125 5.96875 C 11.75 6.082031 10.976563 6.964844 11 8 L 11 42 C 10.988281 42.722656 11.367188 43.390625 11.992188 43.753906 C 12.613281 44.121094 13.386719 44.121094 14.007813 43.753906 C 14.632813 43.390625 15.011719 42.722656 15 42 L 15 8 C 15.007813 7.457031 14.796875 6.9375 14.414063 6.554688 C 14.03125 6.171875 13.511719 5.960938 12.96875 5.96875 C 12.90625 5.964844 12.84375 5.964844 12.78125 5.96875 Z M 36.78125 5.96875 C 35.75 6.082031 34.976563 6.964844 35 8 L 35 42 C 34.988281 42.722656 35.367188 43.390625 35.992188 43.753906 C 36.613281 44.121094 37.386719 44.121094 38.007813 43.753906 C 38.632813 43.390625 39.011719 42.722656 39 42 L 39 8 C 39.007813 7.457031 38.796875 6.9375 38.414063 6.554688 C 38.03125 6.171875 37.511719 5.960938 36.96875 5.96875 C 36.90625 5.964844 36.84375 5.964844 36.78125 5.96875 Z M 6.78125 14.96875 C 5.75 15.082031 4.976563 15.964844 5 17 L 5 33 C 4.988281 33.722656 5.367188 34.390625 5.992188 34.753906 C 6.613281 35.121094 7.386719 35.121094 8.007813 34.753906 C 8.632813 34.390625 9.011719 33.722656 9 33 L 9 17 C 9.007813 16.457031 8.796875 15.9375 8.414063 15.554688 C 8.03125 15.171875 7.511719 14.960938 6.96875 14.96875 C 6.90625 14.964844 6.84375 14.964844 6.78125 14.96875 Z M 42.78125 14.96875 C 41.75 15.082031 40.976563 15.964844 41 17 L 41 33 C 40.988281 33.722656 41.367188 34.390625 41.992188 34.753906 C 42.613281 35.121094 43.386719 35.121094 44.007813 34.753906 C 44.632813 34.390625 45.011719 33.722656 45 33 L 45 17 C 45.007813 16.457031 44.796875 15.9375 44.414063 15.554688 C 44.03125 15.171875 43.511719 14.960938 42.96875 14.96875 C 42.90625 14.964844 42.84375 14.964844 42.78125 14.96875 Z M 18.78125 15.96875 C 17.75 16.082031 16.976563 16.964844 17 18 L 17 32 C 16.988281 32.722656 17.367188 33.390625 17.992188 33.753906 C 18.613281 34.121094 19.386719 34.121094 20.007813 33.753906 C 20.632813 33.390625 21.011719 32.722656 21 32 L 21 18 C 21.007813 17.457031 20.796875 16.9375 20.414063 16.554688 C 20.03125 16.171875 19.511719 15.960938 18.96875 15.96875 C 18.90625 15.964844 18.84375 15.964844 18.78125 15.96875 Z M 30.78125 15.96875 C 29.75 16.082031 28.976563 16.964844 29 18 L 29 32 C 28.988281 32.722656 29.367188 33.390625 29.992188 33.753906 C 30.613281 34.121094 31.386719 34.121094 32.007813 33.753906 C 32.632813 33.390625 33.011719 32.722656 33 32 L 33 18 C 33.007813 17.457031 32.796875 16.9375 32.414063 16.554688 C 32.03125 16.171875 31.511719 15.960938 30.96875 15.96875 C 30.90625 15.964844 30.84375 15.964844 30.78125 15.96875 Z M 0.90625 20.96875 C 0.863281 20.976563 0.820313 20.988281 0.78125 21 C 0.316406 21.105469 -0.0117188 21.523438 0 22 L 0 28 C -0.00390625 28.359375 0.183594 28.695313 0.496094 28.878906 C 0.808594 29.058594 1.191406 29.058594 1.503906 28.878906 C 1.816406 28.695313 2.003906 28.359375 2 28 L 2 22 C 2.011719 21.710938 1.894531 21.433594 1.6875 21.238281 C 1.476563 21.039063 1.191406 20.941406 0.90625 20.96875 Z M 24.78125 20.96875 C 23.75 21.082031 22.976563 21.964844 23 23 L 23 27 C 22.988281 27.722656 23.367188 28.390625 23.992188 28.753906 C 24.613281 29.121094 25.386719 29.121094 26.007813 28.753906 C 26.632813 28.390625 27.011719 27.722656 27 27 L 27 23 C 27.007813 22.457031 26.796875 21.9375 26.414063 21.554688 C 26.03125 21.171875 25.511719 20.960938 24.96875 20.96875 C 24.90625 20.964844 24.84375 20.964844 24.78125 20.96875 Z M 48.90625 20.96875 C 48.863281 20.976563 48.820313 20.988281 48.78125 21 C 48.316406 21.105469 47.988281 21.523438 48 22 L 48 28 C 47.996094 28.359375 48.183594 28.695313 48.496094 28.878906 C 48.808594 29.058594 49.191406 29.058594 49.503906 28.878906 C 49.816406 28.695313 50.003906 28.359375 50 28 L 50 22 C 50.011719 21.710938 49.894531 21.433594 49.6875 21.238281 C 49.476563 21.039063 49.191406 20.941406 48.90625 20.96875 Z"/></svg>